<svg xmlns="http://www.w3.org/2000/svg" viewBox="0 0 1097 933"><defs><style>.cls-1{isolation:isolate;}.cls-2,.cls-26{fill:#24d189;}.cls-12,.cls-3{fill:#fff;}.cls-27,.cls-4{fill:#82c937;}.cls-21,.cls-5{fill:#409e6f;}.cls-14,.cls-15,.cls-17,.cls-19,.cls-21,.cls-5,.cls-7{mix-blend-mode:multiply;}.cls-27,.cls-5{opacity:0.3;}.cls-15,.cls-6{fill:#eca0a4;}.cls-14,.cls-15,.cls-17,.cls-19,.cls-21,.cls-26,.cls-7{opacity:0.5;}.cls-8{fill:#4a1200;}.cls-9{fill:#284d21;}.cls-10{fill:#c1dae6;}.cls-11,.cls-19{fill:#3b651a;}.cls-12{stroke:#231f20;stroke-miterlimit:10;stroke-width:0.44px;}.cls-13,.cls-14{fill:#ce808b;}.cls-16,.cls-17{fill:#333;}.cls-18{fill:#e6e7e8;}.cls-20{fill:#231f20;}.cls-22{fill:#6d492c;}.cls-23{fill:#b5d0de;}.cls-24{fill:#003b67;}.cls-25{fill:#8e572a;}</style></defs><g class="cls-1"><g id="Layer_2" data-name="Layer 2"><g id="Layer_1-2" data-name="Layer 1"><ellipse class="cls-2" cx="374.45" cy="555.3" rx="46.41" ry="36.59"/><path class="cls-3" d="M390.14,558.37c5.43-4.56,5.14-11.75-.64-16s-14.9-4.05-20.33.51c-4.92,4.13-5.13,10.41-.83,14.74l-12.88,10.82a1.48,1.48,0,0,0,.1,2.44,2.63,2.63,0,0,0,3.1-.07L371.54,560C377.29,563.06,385.23,562.5,390.14,558.37Zm-17.32-2c-4-3-4.22-8-.45-11.14a12,12,0,0,1,14.12-.35c4,3,4.22,8,.45,11.13A12,12,0,0,1,372.82,556.36Z"/><ellipse class="cls-2" cx="939.92" cy="451.51" rx="46.41" ry="36.59"/><path class="cls-3" d="M947.53,460.62c0,.27-.41.48-.9.48H933.22c-.5,0-.9-.21-.9-.48h0c0-.26.4-.48.9-.48h13.41c.49,0,.9.22.9.48Z"/><path class="cls-3" d="M947,462.29c0,.3-.37.54-.83.54H933.73c-.46,0-.83-.24-.83-.54h0c0-.3.37-.55.83-.55h12.39c.46,0,.83.25.83.55Z"/><path class="cls-3" d="M946.57,464.12c0,.29-.35.53-.79.53H934.07c-.44,0-.79-.24-.79-.53h0c0-.29.35-.53.79-.53h11.71c.44,0,.79.24.79.53Z"/><path class="cls-3" d="M945.23,465.29H934.61a.67.67,0,1,0,0,1.34h1.31a1,1,0,0,0,1.14.9h5.73a1,1,0,0,0,1.14-.9h1.3a.67.67,0,1,0,0-1.34Z"/><path class="cls-3" d="M941.24,454.75a1,1,0,0,1,.58-.84l.62-.32a3.53,3.53,0,0,0,2.11-3.06c0-2-2.08-3.65-4.63-3.65s-4.62,1.64-4.62,3.65a3.53,3.53,0,0,0,2.11,3.06l.62.32a1,1,0,0,1,.58.84v4.64h2.63Z"/><path class="cls-3" d="M939.92,435.49c-7.5,0-13.58,4.8-13.58,10.71,0,3.77,2.47,7.08,6.2,9v3.59a.71.71,0,0,0,.77.61h2.75l0-4.12a5.46,5.46,0,0,1-3.27-4.74c0-3.12,3.21-5.65,7.16-5.65s7.17,2.53,7.17,5.65a5.46,5.46,0,0,1-3.27,4.74l0,0v4.1h2.75a.71.71,0,0,0,.78-.61v-3.59c3.73-1.91,6.2-5.22,6.2-9C953.51,440.29,947.43,435.49,939.92,435.49Z"/><ellipse class="cls-2" cx="66.38" cy="112.67" rx="46.41" ry="36.59"/><path class="cls-3" d="M86.7,114.4v-3.46a1.17,1.17,0,0,0-1.28-1H80.87a10.54,10.54,0,0,0-1.79-3.41L82.3,104a.86.86,0,0,0,0-1.42l-3.11-2.44a1.5,1.5,0,0,0-1.8,0l-3.22,2.54a16.73,16.73,0,0,0-4.32-1.42V97.65a1.17,1.17,0,0,0-1.28-1H64.19a1.17,1.17,0,0,0-1.28,1v3.59a16.93,16.93,0,0,0-4.33,1.42l-3.22-2.54a1.52,1.52,0,0,0-1.8,0l-3.1,2.44a.86.86,0,0,0,0,1.42l3.22,2.54a10.56,10.56,0,0,0-1.8,3.41H47.33a1.16,1.16,0,0,0-1.27,1v3.46a1.16,1.16,0,0,0,1.27,1h4.55a10.46,10.46,0,0,0,1.8,3.41l-3.22,2.55a.86.86,0,0,0,0,1.42l3.1,2.44a1.53,1.53,0,0,0,1.8,0l3.22-2.54a17.74,17.74,0,0,0,4.33,1.42v3.59a1.17,1.17,0,0,0,1.28,1h4.38a1.17,1.17,0,0,0,1.28-1V124.1a17.53,17.53,0,0,0,4.32-1.42l3.22,2.54a1.53,1.53,0,0,0,1.8,0l3.11-2.45a.86.86,0,0,0,0-1.42l-3.22-2.54a10.43,10.43,0,0,0,1.79-3.41h4.55A1.17,1.17,0,0,0,86.7,114.4Zm-18.5,4.38c-5.81,1-10.87-3-9.58-7.55.66-2.31,3-4.17,5.94-4.68,5.81-1,10.86,3,9.57,7.56C73.48,116.41,71.12,118.27,68.2,118.78Z"/><path class="cls-4" d="M865.5,141.27c0-1.69-.08-3.36-.16-5L886,127.94l-5-22.4L858,103.3q-1.95-4.83-4.39-9.49l15.73-13.32L855,60.78,832.4,64.87c-2.61-2.66-5.33-5.25-8.2-7.73l9-16.78L811.11,25.74l-19.4,9.92c-3.6-1.8-7.28-3.48-11.07-5l1.19-18.2L754.72,4.63,740.8,19.17q-6.21-1.07-12.59-1.73L721.43,0H692.57l-6.78,17.44q-6.37.68-12.59,1.73L659.28,4.63l-27.11,7.78,1.19,18.2q-5.67,2.36-11.07,5l-19.4-9.92L580.78,40.36l9,16.78c-2.87,2.48-5.59,5.07-8.2,7.73l-22.55-4.09L544.63,80.49l15.73,13.32q-2.43,4.66-4.39,9.49l-22.91,2.24-5,22.4,20.61,8.29c-.08,1.68-.16,3.35-.16,5s.08,3.36.16,5l-20.61,8.3,5,22.4L556,179.23q1.95,4.85,4.39,9.5l-15.73,13.32,14.42,19.7,22.55-4.09c2.61,2.66,5.33,5.26,8.2,7.74l-9,16.78,22.11,14.62,19.4-9.92q5.4,2.69,11.07,5.05l-1.19,18.2,27.11,7.78,13.92-14.54q6.21,1.06,12.59,1.73l6.78,17.44h28.86l6.78-17.44q6.38-.68,12.59-1.73l13.92,14.54,27.11-7.78-1.19-18.2c3.79-1.57,7.47-3.26,11.07-5.05l19.4,9.92,22.11-14.62-9-16.78c2.87-2.48,5.59-5.08,8.2-7.74L855,221.75l14.42-19.7-15.73-13.32q2.43-4.66,4.39-9.5L880.94,177l5-22.4-20.61-8.3C865.42,144.63,865.5,143,865.5,141.27ZM707,179.06c-26.47,0-47.93-16.92-47.93-37.79s21.46-37.8,47.93-37.8,47.93,16.93,47.93,37.8S733.47,179.06,707,179.06Z"/><path class="cls-3" d="M707,231.42c-63,0-114.33-40.44-114.33-90.15S644,51.12,707,51.12s114.33,40.44,114.33,90.15S770,231.42,707,231.42Zm0-178.07c-61.48,0-111.51,39.44-111.51,87.92s50,87.92,111.51,87.92,111.51-39.44,111.51-87.92S768.48,53.35,707,53.35Z"/><path class="cls-3" d="M707,236.86c-66.84,0-121.23-42.88-121.23-95.59S640.16,45.68,707,45.68s121.23,42.88,121.23,95.59S773.84,236.86,707,236.86Zm0-190.17c-66.14,0-120,42.43-120,94.58s53.81,94.58,120,94.58,120-42.43,120-94.58S773.14,46.69,707,46.69Z"/><path class="cls-4" d="M591.6,378.75a79,79,0,0,0,.73-22.94l22.23-19.33L600.1,306.9l-32.93-2.57a115.16,115.16,0,0,0-20.07-16.62l-1.61-26.07-36.76-12.85-25.59,16.54a160,160,0,0,0-29.09-.57l-24.51-17.53L392,258.63l-3.26,26a119,119,0,0,0-21.08,15.82l-33.05,1.27-16.31,29,21,20.18a79,79,0,0,0-.73,22.94l-22.23,19.33,14.46,29.58,32.93,2.57a115.16,115.16,0,0,0,20.06,16.62L385.42,468l36.75,12.86,25.59-16.55a161.06,161.06,0,0,0,29.1.58l24.51,17.52L538.89,471l3.25-26a119.9,119.9,0,0,0,21.09-15.82l33-1.28,16.31-29Zm-160,46.2c-42.14-14.74-61.14-53.62-42.45-86.84s68-48.21,110.14-33.47,61.14,53.62,42.44,86.85S473.74,439.69,431.61,425Z"/><path class="cls-3" d="M428.38,430.7c-46.09-16.12-66.95-58.8-46.5-95.14s74.57-52.78,120.65-36.66S569.47,357.7,549,394,474.46,446.82,428.38,430.7Zm73.74-131.06C456.55,283.7,403,300,382.81,335.89s.41,78.13,46,94.07,99.09-.33,119.3-36.25S547.68,315.58,502.12,299.64Z"/><path class="cls-3" d="M424.23,438.06C373,420.14,349.81,372.69,372.54,332.3s82.9-58.68,134.13-40.76,74.42,65.36,51.69,105.76S475.46,456,424.23,438.06Zm81.52-144.88c-50.08-17.52-108.91.35-131.13,39.84s.45,85.88,50.54,103.4,108.91-.36,131.13-39.85S555.84,310.7,505.75,293.18Z"/><path class="cls-5" d="M401.62,923.13c0,5.45-89.91,9.87-200.81,9.87S0,928.58,0,923.13s89.91-9.86,200.81-9.86S401.62,917.68,401.62,923.13Z"/><path class="cls-5" d="M669.84,923.13c0,5.45-55,9.87-122.76,9.87s-122.76-4.42-122.76-9.87,55-9.86,122.76-9.86S669.84,917.68,669.84,923.13Z"/><path class="cls-5" d="M1097,923.13c0,5.45-92.45,9.87-206.49,9.87S684,928.58,684,923.13s92.45-9.86,206.48-9.86S1097,917.68,1097,923.13"/><path class="cls-6" d="M769.31,626.27l-21.08,13.15-13.76-13.78c-5.16,2-11.51,1.09-15.46-2.47l-25.17-22.68a7.81,7.81,0,0,1-1.26-10.84,7.93,7.93,0,0,1,.59-.71l16.16-17.79a5.89,5.89,0,0,1,8-.21l26.89,25.85,1.29-1.89a5,5,0,0,0,.65-4.43l-1.55-4.71c-.68-2.1.56-4.27,3-5.27,3-1.22,6.74-.15,8,2.33l3,5.65a3.44,3.44,0,0,1,.41,1.77l-.91,17.12a5.91,5.91,0,0,1-2.68,4.4l-2.13,1.47Z"/><path class="cls-4" d="M921.06,642.14l-98,19.56a14.68,14.68,0,0,1-12.15-2.83l-47.14-40L737.47,635l59.28,56.73a14.38,14.38,0,0,0,11.74,3.42l108.75-15s26.72-4.88,24-21.45S921.06,642.14,921.06,642.14Z"/><g class="cls-7"><path class="cls-6" d="M726.21,593.77a2,2,0,0,1-1.93,0,1.44,1.44,0,0,1-.32-.23l-18.5-18.15,1.92-2.12L726.48,592A1.12,1.12,0,0,1,726.21,593.77Z"/><path class="cls-6" d="M717.85,599a2,2,0,0,1-2,.06,1.21,1.21,0,0,1-.3-.25L699,582.53l2-2.15,17.14,16.8A1.09,1.09,0,0,1,717.85,599Z"/><path class="cls-6" d="M709.46,604.18a1.88,1.88,0,0,1-1.94,0,1.44,1.44,0,0,1-.32-.23l-14.62-14.34a7.93,7.93,0,0,1,.59-.71l1.33-1.46,15.2,14.92A1.08,1.08,0,0,1,709.46,604.18Z"/></g><path class="cls-8" d="M836.27,548.62a12.1,12.1,0,0,1-1.3,2.2,5.77,5.77,0,0,0,.6,6,22.65,22.65,0,0,0,4.91,4.86,2.51,2.51,0,0,0,.88-2.22c.13-4.51.9-9.38,4.84-12.65a15.39,15.39,0,0,0,2.44-2.14c1.08-1.41,1-3.2,1.88-4.68,1.28-2.12,4.61-3.84,3.86-6.12a4.43,4.43,0,0,0-1.26-1.67c-2.76-2.61-7-4.89-11.12-3.94-.06,2.66-2.82,4.69-4.83,6.82-2.22,2.34-3.71,5.39-2.67,8.2C835.16,545.08,836.83,546.81,836.27,548.62Z"/><path class="cls-2" d="M1043.67,856c-30.06-53.12-92.88-89.67-165.54-89.67S742.64,802.84,712.58,856c-17.82,31.49,12.45,67,56.19,67H987.49c43.74,0,74-35.47,56.18-67"/><path class="cls-2" d="M310.06,922.93H91.34c-43.71,0-74-35.49-56.14-67a158.19,158.19,0,0,1,25.54-33.61c33.78-34.33,84-56.09,140-56.09,72.66,0,135.5,36.57,165.53,89.7.29.49.57,1,.8,1.48C383.11,888.51,353.14,922.93,310.06,922.93Z"/><path class="cls-9" d="M858.51,910.28v7.14c0,1.6-1.63,2.89-3.63,2.89H808.13c-2,0-3.65-1.29-3.65-2.89v-7.8a2.28,2.28,0,0,1,.2-.92l5.21-12.18,4.35-10.13,1.51-17.06h31.62l3.38,17.06,3.48,10.54,4.18,12.62A2.26,2.26,0,0,1,858.51,910.28Z"/><path class="cls-10" d="M845.59,902.71H819.93c3-7,4.93-23.71,5.83-33.38H838c.53,3.16,1.25,7,2.15,11C842.34,889.7,845.59,902.71,845.59,902.71Z"/><path class="cls-11" d="M860.61,912v7.67c0,1.71-1.76,3.1-3.93,3.1H806.33c-2.17,0-3.94-1.39-3.94-3.1v-8.36a2.18,2.18,0,0,1,.22-1l2.36-5.51c2.32-5.42,8.22-9.39,15.36-10.41a79.08,79.08,0,0,1,11.17-.78,78.15,78.15,0,0,1,12.18.93c7.34,1.15,13.13,5.62,15,11.33l1.77,5.33c0,.07,0,.12.07.2A3.93,3.93,0,0,1,860.61,912Z"/><path class="cls-3" d="M862.31,919.75c0,1.75-1.86,3.17-4.16,3.17h-53.3c-2.3,0-4.16-1.42-4.16-3.17v-7.39A1.22,1.22,0,0,1,802,911.3h58.9a1.23,1.23,0,0,1,1.34,1C862.29,914.6,862.31,919.75,862.31,919.75Z"/><path class="cls-9" d="M897.75,910.28v7.14c0,1.6,1.62,2.89,3.63,2.89h46.74c2,0,3.66-1.29,3.66-2.89v-7.8a2.45,2.45,0,0,0-.2-.92l-5.21-12.18L942,886.39l-1.5-17.06H908.89l-3.38,17.06L902,896.93l-4.18,12.62A2.26,2.26,0,0,0,897.75,910.28Z"/><path class="cls-10" d="M910.67,902.71h25.66c-3-7-4.93-23.71-5.83-33.38H918.23c-.53,3.16-1.26,7-2.16,11C913.92,889.7,910.67,902.71,910.67,902.71Z"/><path class="cls-11" d="M895.65,912v7.67c0,1.71,1.76,3.1,3.93,3.1h50.35c2.17,0,3.93-1.39,3.93-3.1v-8.36a2.06,2.06,0,0,0-.22-1l-2.36-5.51c-2.32-5.42-8.21-9.39-15.35-10.41a79.08,79.08,0,0,0-11.17-.78,78.28,78.28,0,0,0-12.19.93c-7.34,1.15-13.12,5.62-15,11.33l-1.78,5.33c0,.07,0,.12-.06.2A3.93,3.93,0,0,0,895.65,912Z"/><path class="cls-3" d="M893.94,919.75c0,1.75,1.87,3.17,4.17,3.17H951.4c2.3,0,4.17-1.42,4.17-3.17v-7.39a1.22,1.22,0,0,0-1.34-1.06h-58.9a1.22,1.22,0,0,0-1.34,1C894,914.6,893.94,919.75,893.94,919.75Z"/><path class="cls-12" d="M790.79,674s-.53,21.4,12.18,33.77S866.91,674,866.91,674Z"/><path class="cls-4" d="M837.64,679.5l18-81.62-16.08,7c-20.31,8.89-36.56,22.87-44.86,40-.51,1.06-1,2.13-1.46,3.2a44.23,44.23,0,0,0-3.44,15.5l-.71,15.92Z"/><path class="cls-4" d="M918.62,679.5l-18-81.62,16.08,7c20.31,8.89,36.56,22.87,44.86,40,.51,1.06,1,2.13,1.46,3.2a44.23,44.23,0,0,1,3.44,15.5l.71,15.92Z"/><path class="cls-9" d="M812,748.83,811.05,774c-.49,12.95,9.18,23.74,21.28,23.74h91.59c12.1,0,21.77-10.79,21.29-23.74l-.93-25.15Z"/><path class="cls-3" d="M948.24,752.43l-4.65-106.32c-.58-13.44-7.24-26.06-18.39-34.86l-4.47-3.53a64.36,64.36,0,0,0-42.6-13.43h0a64.36,64.36,0,0,0-42.6,13.43l-4.48,3.53c-11.14,8.8-17.8,21.42-18.39,34.86L808,752.43Z"/><path class="cls-13" d="M901.53,603.39a30.33,30.33,0,0,1-2,6.85c-2.38,5.59-7.32,11.77-17.42,11.77h-8c-14.93,0-18.62-13.43-19.47-18.62a3.46,3.46,0,0,1,1.42-3.36,5.07,5.07,0,0,1,2.38-1,2,2,0,0,1,.74-.13l3-19.52h31.9l3,19.52a5.88,5.88,0,0,1,3.12,1.16A3.54,3.54,0,0,1,901.53,603.39Z"/><path class="cls-14" d="M901.53,603.39a30.33,30.33,0,0,1-2,6.85c-23.33.4-35.47-6.54-41-11.24a2,2,0,0,1,.74-.13l3-19.52h31.9l3,19.52a5.88,5.88,0,0,1,3.12,1.16A3.54,3.54,0,0,1,901.53,603.39Z"/><path class="cls-6" d="M914.27,563.56a42.44,42.44,0,0,1-1.36,5.55c-6,18.67-24.13,31.6-43,29.5-19.92-2.2-33.38-20.28-30.82-41a11.3,11.3,0,0,1,.28-2.33,39.34,39.34,0,0,1,2.5-8.59,43.42,43.42,0,0,1,7-11.73c8.57-10.21,21.57-16.2,34.91-14.73A34.53,34.53,0,0,1,913,544.09c.35,1,.63,2.06.91,3.13A40.27,40.27,0,0,1,914.27,563.56Z"/><path class="cls-15" d="M913.87,547.22a77.5,77.5,0,0,1-12.71,6.85c-27.36,11.86-47.8,1.84-59.32-7.38a43.42,43.42,0,0,1,7-11.73c8.57-10.21,21.57-16.2,34.91-14.73A34.53,34.53,0,0,1,913,544.09C913.31,545.12,913.59,546.15,913.87,547.22Z"/><path class="cls-11" d="M861.78,764.25l-5.55,100.28-.74,13.28H807.16l-.66-13.28-5-100.28c0-13.25,13.57-24.1,30.15-24.1S861.78,751,861.78,764.25Z"/><polygon class="cls-11" points="856.23 864.53 855.49 877.81 807.16 877.81 806.5 864.53 856.23 864.53"/><path class="cls-11" d="M894.48,764.25,900,864.53l.73,13.28h48.33l.67-13.28,5-100.28c0-13.25-13.57-24.1-30.15-24.1S894.48,751,894.48,764.25Z"/><polygon class="cls-11" points="900.03 864.53 900.76 877.81 949.09 877.81 949.76 864.53 900.03 864.53"/><path class="cls-16" d="M956.68,738.49H799.57c-4.84,0-9-2.92-9.3-6.54l-6-72.08c-.34-4.16,3.62-7.55,8.86-7.55H963.1c5.24,0,9.2,3.39,8.86,7.55L966,732C965.69,735.57,961.52,738.49,956.68,738.49Z"/><path class="cls-16" d="M965.68,740.71v.09c0,2-2,3.63-4.54,3.63h-166c-2.55,0-4.6-1.61-4.6-3.63v-.09a2.35,2.35,0,0,1,.17-.89c.46-1.57,2.27-2.73,4.43-2.73h166a4.41,4.41,0,0,1,4.37,2.73A2.35,2.35,0,0,1,965.68,740.71Z"/><path class="cls-3" d="M888.42,699.4V690l-10.29-4.69L867.83,690v9.38l10.3,4.68Zm-14.87-2.61v-4.17l4.58-2.08,4.58,2.08v4.17l-4.58,2.09Z"/><path class="cls-17" d="M965.51,739.82H790.72c.46-1.57,2.27-2.73,4.43-2.73h166A4.41,4.41,0,0,1,965.51,739.82Z"/><path class="cls-8" d="M877.28,505.63l-3.91,1.17c-6.3,1.86-14.87-1.32-19.78,2.09-2.86,2-3.12,5.53-6.26,7.28-2.49,1.39-6.16,1.26-8.58,2.71-2.82,1.69-2.81,5.12-.64,7.33.95,1,2.3,1.89,2.36,3.08,0,.9-.7,1.7-1.27,2.5a7.59,7.59,0,0,0-1.41,5.78,2.68,2.68,0,0,0,1.87,2.3c3.42.92,3.82-3.43,7.75-2.58,1.8.39,3.71,2.29,6,2.81,2.66.61,5.5.14,8.08,1.13,3.22,1.24,4.61,4,6.13,6.41s4.1,5,7.7,5c6.7,0,7.73-3,12.18,2,3.7,4.14,6,8.77,6.14,13.7,2.63-2.36,8.26-2.26,11.12,0a5.21,5.21,0,0,1-.19,8.41c-2.83,2.24-7.77,2.73-11.6,1.41-.62,1.82-1.25,3.7-.83,5.57a5.65,5.65,0,0,0,4.7,4.12c1.63.25,3.48-.11,4.87.57,1,.47,1.48,1.34,2.48,1.78,2.43,1.08,5-1,7.34-2.1,3.84-1.7,9.76,0,12.93-2.28,1.75-1.28,1.62-3.37,1.46-5.2-.33-3.74.08-8,4.13-10.26,1.26-.69,2.77-1.1,4.08-1.74,4.59-2.23,5.85-7.41,2.62-10.77-1.51-1.58-3.92-3-3.93-4.87s2.67-3.38,4-5.12c1.75-2.22,1.09-5.34-1.5-7.14-2.81-1.94-4.87-3.75-5.84-6.6s1.06-5.67.81-8.54c-.29-3.43-4.19-6.57-8.84-7.09-4.28-.49-9.67.73-12.28-1.83-1.25-1.23-1.23-2.87-1.68-4.36-1.28-4.25-6.73-7.39-12.51-8.4C888.15,502.73,882.89,504,877.28,505.63Z"/><path class="cls-6" d="M542.63,913.76V919A2.44,2.44,0,0,1,540,921.1H505.75a2.44,2.44,0,0,1-2.67-2.11v-5.71a1.8,1.8,0,0,1,.14-.68l3.82-8.91,3.18-7.41h26.72l2.55,7.72,3,9.23A1.6,1.6,0,0,1,542.63,913.76Z"/><path class="cls-11" d="M544.15,915v5.61a2.63,2.63,0,0,1-2.87,2.27H504.43c-1.59,0-2.88-1-2.88-2.27v-6.12a1.54,1.54,0,0,1,.17-.73l4.09-9.57a53.69,53.69,0,0,1,17-2.65,52.19,52.19,0,0,1,17.92,3l3.29,9.9a.78.78,0,0,0,.05.14A3.27,3.27,0,0,1,544.15,915Z"/><path class="cls-18" d="M544.15,915v5.61a2.63,2.63,0,0,1-2.87,2.27H504.43c-1.59,0-2.88-1-2.88-2.27v-6h42.56A3.27,3.27,0,0,1,544.15,915Z"/><path class="cls-6" d="M556,913.76V919a2.44,2.44,0,0,0,2.67,2.11h34.21a2.44,2.44,0,0,0,2.67-2.11v-5.71a1.8,1.8,0,0,0-.14-.68l-3.82-8.91-3.18-7.41H561.73L559.18,904l-3,9.23A1.6,1.6,0,0,0,556,913.76Z"/><path class="cls-11" d="M554.52,915v5.61a2.63,2.63,0,0,0,2.87,2.27h36.85a2.62,2.62,0,0,0,2.87-2.27v-6.12a1.53,1.53,0,0,0-.16-.73l-4.09-9.57a53.69,53.69,0,0,0-17-2.65,52.19,52.19,0,0,0-17.92,3l-3.29,9.9a.78.78,0,0,0-.05.14A3.27,3.27,0,0,0,554.52,915Z"/><path class="cls-18" d="M554.52,915v5.61a2.63,2.63,0,0,0,2.87,2.27h36.85a2.62,2.62,0,0,0,2.87-2.27v-6H554.56A3.27,3.27,0,0,0,554.52,915Z"/><path class="cls-6" d="M644.44,393.7c.85,14.72,1.76,29.45,2.61,44.17,1.2,19.38.57,39.26-2.95,58.59q-.6,3.44-1.36,6.85c-1.42,6.54-4,18.71-17.26,15.58-7.66-1.84-9.7-9-10.27-14.91a222.29,222.29,0,0,1-.06-39.88c1.76-24.3,6.42-48.43,10.05-72.91a14.76,14.76,0,0,1-3.8-5.82,9.16,9.16,0,0,0-2-3.13c-1.87-1.88-3.75-4.61-3.46-7.57.62-5.55,8.79-7.61,8.79-7.61V351.17s.06-5.14,2.5-5.59,4.6,1.3,4.83,6.31c.11,2.33.51,7.16.91,11.64.11,1.34,1.7,2.33,3.57,2.33,8.91,0,16.07,6.66,16.07,14.86A14.74,14.74,0,0,1,644.44,393.7Z"/><path class="cls-14" d="M644.1,496.46q-.6,3.44-1.36,6.85c-1.42,6.54-4,18.71-17.26,15.58-7.66-1.84-9.7-9-10.27-14.91a222.29,222.29,0,0,1-.06-39.88C622.13,468.94,636.55,480.22,644.1,496.46Z"/><path class="cls-6" d="M538.57,534.37s-55,66.2-68.29,50.22c-9.3-11.19-12.71-31-13.9-41.94-.51-4.7-.63-7.74-.63-7.74l38.32-.27Z"/><path class="cls-14" d="M494.07,534.64v12.49l-37.69-4.48c-.51-4.7-.63-7.74-.63-7.74Z"/><polygon class="cls-13" points="568.49 463.93 532.25 462.7 535.42 447.26 536.96 439.83 566.28 440.82 567.63 454.67 568.49 463.93"/><path class="cls-14" d="M567.63,454.67c-17.48-1.27-27.45-5-32.21-7.41l1.54-7.43,29.33,1Z"/><path class="cls-4" d="M502.44,539.37l8.65-75.76-21,9.95c-15.43,8.7-27.28,21.17-34.07,35.66a39.57,39.57,0,0,0-3.59,14.87l-.74,15.28Z"/><path class="cls-4" d="M594,525.32l-8.64-61.71,21,8.11c16.26,7.46,51.38,33,29.16,48.51C625.14,527.5,606.91,525.32,594,525.32Z"/><path class="cls-11" d="M613.85,636.65l-1.76,27.84-14.93,233.6H553.9V678.41c0-2-2-3.63-4.54-3.63s-4.6,1.61-4.6,3.63V898.09H501.51L486,653.3l-1.08-16.65Z"/><polygon class="cls-19" points="613.85 636.65 612.09 664.49 485.95 653.3 484.87 636.65 613.85 636.65"/><path class="cls-3" d="M595.86,469l-4.42-3c-11.65-7.95-26.72-12-42.1-11.47h0C534,454,518.88,458.07,507.23,466l-4.42,3c-11,7.51-17.59,18.29-18.17,29.76l-7.49,148.07H621.52L614,498.8C613.45,487.33,606.87,476.55,595.86,469Z"/><path class="cls-6" d="M600.08,418.94c-.1.23-.2.51-.3.74a38.17,38.17,0,0,1-3,6.77c-9.15,16.48-28.52,26.3-46.64,22.63-19.91-4-31.18-22.67-26.23-42.54.26-.94.47-1.89.8-2.87a45.84,45.84,0,0,1,34.18-30.11,41.37,41.37,0,0,1,15.8,0,35.11,35.11,0,0,1,13.79,6C600.08,388,605.13,403.33,600.08,418.94Z"/><path class="cls-15" d="M600.08,418.94c-.1.23-.2.51-.3.74-42.79-1.69-50.37-27.8-50.37-27.8L544.73,379a45,45,0,0,1,14.18-5.48,41.37,41.37,0,0,1,15.8,0,35.11,35.11,0,0,1,13.79,6C600.08,388,605.13,403.33,600.08,418.94Z"/><path class="cls-20" d="M530.46,379.11a45.07,45.07,0,0,1,11.44-8.78c6.54-3.35,14.51-4.7,22.31-4.55A88.76,88.76,0,0,1,587,369.62a39.6,39.6,0,0,1,8.33,3.19,46,46,0,0,1,8,6.31,26.26,26.26,0,0,0,8.69,5.62,14.94,14.94,0,0,0,7.7.59c1.52-.32,3,.6,2.68,1.82a21.67,21.67,0,0,1-7.84,11.74c-4.87,3.93-11.3,6.54-18,7.94-11.6,2.4-25.14.93-33.5-5.85-2.87,3.52-8.16,5.74-13.48,5.64a2.56,2.56,0,0,1-1.27-.24,2,2,0,0,1-.71-.9c-1.35-2.64-4.18-5.31-7.78-5.06s-5.78,3.25-6.28,6a8.54,8.54,0,0,0,6.63,9.89c-1.37,5.88-7.16,10.92-14.32,12.81a4.77,4.77,0,0,1-4.89-1.33,29.46,29.46,0,0,1-5.07-24.2C517.76,394.63,523.35,386.31,530.46,379.11Z"/><path class="cls-21" d="M367.05,857.45C188.92,863.4,102.29,842,60.74,822.36c33.78-34.33,84-56.09,140-56.09,72.66,0,135.5,36.57,165.53,89.7C366.54,856.46,366.82,857,367.05,857.45Z"/><path class="cls-2" d="M310.08,814H91.34c-43.73,0-74-35.48-56.15-67,19.39-34.28,52.46-61.67,93-76.72a206.11,206.11,0,0,1,72.51-12.94c43.58,0,83.62,13.14,115.18,35.15A167.84,167.84,0,0,1,366.29,747C384.11,778.52,353.81,814,310.08,814Z"/><path class="cls-21" d="M315.89,692.52c-80,7.05-149.46-9.83-187.69-22.21a206.11,206.11,0,0,1,72.51-12.94C244.29,657.37,284.33,670.51,315.89,692.52Z"/><path class="cls-22" d="M145.56,630.57l0,33.1,101.87.08v-4.6a13.67,13.67,0,0,0-5.7-10.76c-14.22-11-35.51-7.15-35.51-7.15L187.5,630.6Z"/><path class="cls-11" d="M145.56,630.57l0,33.1h16.71c1.67-10.69,5.43-24.83,7.77-33.1Z"/><path class="cls-23" d="M143.08,660v7.34c0,.77.74,1.36,1.73,1.36l103.37.09a1.54,1.54,0,0,0,1.69-1.37v-7.34a1.56,1.56,0,0,0-1.69-1.37l-103.37-.08A1.57,1.57,0,0,0,143.08,660Z"/><path class="cls-24" d="M120.23,354.69S119.67,399,140.39,419l0,213.77h24.77l20.19-277.42Z"/><path class="cls-9" d="M120.23,354.69S119.67,399,140.39,419l0,213.77h24.77l20.19-277.42Z"/><path class="cls-4" d="M158.92,629.88l0,33.7,103.6.08V659A14,14,0,0,0,256.71,648c-14.5-11.17-36.14-7.27-36.14-7.27l-19-10.84Z"/><path class="cls-3" d="M156.36,659.84v7.46a1.61,1.61,0,0,0,1.77,1.4l105.15.09a1.61,1.61,0,0,0,1.77-1.4v-7.46a1.61,1.61,0,0,0-1.77-1.4l-105.14-.08A1.62,1.62,0,0,0,156.36,659.84Z"/><path class="cls-11" d="M119.74,347s-.24,25,12.92,42.5,23.71,29.56,23.71,29.56l-6,212.16H210.7l9.88-286.57Z"/><path class="cls-6" d="M302.53,180.56l-2.55.76-13.64,4.11c-3.82,1.15-6,4.52-4.65,7.57,0,0,0,.07.09.12l.33.92-17.39,4.29,3.8,8.27,3.47,7.55,16.58-4.78c2.43,3,7.17,4.54,11.73,3.44l14.83-3.61c5.91-1.41,9.12-6.43,7.07-11l-5.54-12.48C314.62,181.16,308.21,178.82,302.53,180.56Z"/><path class="cls-15" d="M302.53,180.56l-2.55.76-13.64,4.11c-3.82,1.15-6,4.52-4.65,7.57,0,0,0,.07.09.12l.33.92-17.39,4.29,3.8,8.27,3.47,7.55,16.58-4.78c2.43,3,7.17,4.54,11.73,3.44l14.83-3.61c5.91-1.41,9.12-6.43,7.07-11l-5.54-12.48C314.62,181.16,308.21,178.82,302.53,180.56Z"/><path class="cls-6" d="M300,181.32l-13.64,4.11c-3.82,1.15-6,4.52-4.65,7.57,0,0,0,.07.09.12l.33.92-17.39,4.29,3.8,8.27a11.49,11.49,0,0,0,6.72.62c19.31-2.79,20.71-14.38,20.71-14.38l3.88,2.49a4.19,4.19,0,0,0,4.05.18l2.37-1.19c1.6-.81,2.08-2.48,1.07-3.75Z"/><path class="cls-2" d="M478.74,146.26c0-1-.05-2-.1-3.06l12.52-5-3.05-13.61L474.2,123.2c-.79-2-1.69-3.88-2.67-5.77l9.56-8.1-8.76-12-13.7,2.48c-1.59-1.61-3.24-3.19-5-4.7L459.12,85,445.7,76.08l-11.79,6C431.72,81,429.49,80,427.19,79l.72-11-16.47-4.73L403,72.09q-3.78-.65-7.66-1l-4.11-10.6H373.69L369.57,71c-2.58.27-5.14.62-7.65,1l-8.46-8.84L337,68l.73,11q-3.45,1.44-6.73,3.07l-11.78-6L305.78,85l5.47,10.19c-1.74,1.51-3.39,3.09-5,4.7l-13.7-2.48-8.77,12,9.56,8.1q-1.47,2.83-2.67,5.77l-13.91,1.35-3,13.61,12.52,5c-.06,1-.1,2-.1,3.06s0,2,.1,3.06l-12.52,5,3,13.61,13.91,1.35q1.2,2.94,2.67,5.77l-9.56,8.09,8.77,12,13.7-2.48c1.58,1.61,3.23,3.19,5,4.7l-5.47,10.19,13.43,8.88,11.78-6c2.19,1.09,4.43,2.12,6.73,3.07L337,224.54l16.47,4.72,8.46-8.83c2.51.43,5.07.78,7.65,1l4.12,10.6h17.53l4.11-10.6q3.89-.4,7.66-1l8.45,8.83,16.47-4.72-.72-11.06c2.3-.95,4.53-2,6.72-3.07l11.79,6,13.42-8.88-5.47-10.19c1.74-1.51,3.39-3.09,5-4.7l13.7,2.48,8.76-12-9.56-8.09c1-1.89,1.88-3.81,2.67-5.77L488.11,168l3.05-13.61-12.52-5C478.69,148.3,478.74,147.28,478.74,146.26Zm-96.29,41.67c-29.18,0-52.84-18.66-52.84-41.67s23.66-41.67,52.84-41.67,52.85,18.66,52.85,41.67S411.64,187.93,382.45,187.93Z"/><ellipse class="cls-2" cx="382.45" cy="146.26" rx="24.16" ry="19.05"/><path class="cls-3" d="M382.45,203.27c-39.87,0-72.31-25.57-72.31-57s32.44-57,72.31-57,72.31,25.58,72.31,57S422.32,203.27,382.45,203.27Zm0-111.64c-38.2,0-69.29,24.5-69.29,54.63s31.09,54.63,69.29,54.63,69.29-24.51,69.29-54.63S420.66,91.63,382.45,91.63Z"/><path class="cls-4" d="M152.73,225.34l119.48-31.93,7.86,22.09-85.82,29.2c-3.61,1.31-46.91,12.52-47.59,9.44C146.66,254.14,148,226.66,152.73,225.34Z"/><path class="cls-3" d="M113.62,359.87l115.88-7.24S227.35,280.7,217,244.55a63.64,63.64,0,0,0-7.55-16.85c-14.72-23.11-40.09-31.25-40.09-31.25l-18-3.94A35,35,0,0,0,143,196.4a71.83,71.83,0,0,0-17.32,15.15C105.33,235.46,113.62,359.87,113.62,359.87Z"/><path class="cls-6" d="M152.35,196.24c.09.1,10.27,11.25,27.55,5.24l.43-1.12,7.09-18.15-23.46-19-13.62-11,.37,7.94,1.14,25Z"/><path class="cls-15" d="M151.85,185.17a70.25,70.25,0,0,0,28.48,15.19l7.09-18.15-23.46-19-13.25-3.06Z"/><path class="cls-6" d="M293.78,203.38,312,214.74l11.89-11.9c4.46,1.69,9.94.94,13.36-2.14L359,181.11a6.76,6.76,0,0,0,1.09-9.37,7.49,7.49,0,0,0-.51-.61l-14-15.38a5.09,5.09,0,0,0-6.88-.18l-23.23,22.34-1.12-1.64a4.28,4.28,0,0,1-.56-3.83l1.33-4.06c.59-1.81-.47-3.69-2.58-4.56-2.6-1-5.83-.13-6.94,2l-2.6,4.88a2.92,2.92,0,0,0-.35,1.53l.79,14.79a5.11,5.11,0,0,0,2.31,3.81l1.84,1.27Z"/><path class="cls-4" d="M162.66,217.1,247.31,234a12.7,12.7,0,0,0,10.5-2.44L298.54,197l22.75,13.89-51.22,49a12.44,12.44,0,0,1-10.14,3l-94-13s-23.09-4.22-20.75-18.54S162.66,217.1,162.66,217.1Z"/><g class="cls-7"><path class="cls-6" d="M331,175.3a1.77,1.77,0,0,0,1.67,0,1.42,1.42,0,0,0,.28-.2l16-15.69-1.66-1.83-16.51,16.12A1,1,0,0,0,331,175.3Z"/><path class="cls-6" d="M338.24,179.78a1.75,1.75,0,0,0,1.7.06,1.07,1.07,0,0,0,.25-.22l14.34-14-1.69-1.85L338,178.25A.94.94,0,0,0,338.24,179.78Z"/><path class="cls-6" d="M345.5,184.3a1.6,1.6,0,0,0,1.66,0,1,1,0,0,0,.29-.2l12.63-12.39a7.49,7.49,0,0,0-.51-.61l-1.15-1.26-13.14,12.89A.93.93,0,0,0,345.5,184.3Z"/></g><path class="cls-6" d="M216.65,152.72c1.1,16.71-8.4,31.5-24.67,35.79a39.65,39.65,0,0,1-23.47-1.36,48,48,0,0,1-28.17-27.69,6.71,6.71,0,0,1-.4-1.11c-.49-1.24-.79-2.45-1.16-3.71v0c-2.76-10.66-1.2-21.12,3.83-29.23A32.35,32.35,0,0,1,162.14,111c11.87-3.14,24.74,0,35,7.48a37.47,37.47,0,0,1,3.21,2.52,47.52,47.52,0,0,1,13.46,19.05l.64,1.85A41.76,41.76,0,0,1,216.65,152.72Z"/><path class="cls-15" d="M214.42,141.93a66.85,66.85,0,0,1-32.53,14.18c-5.06.72-10.37.95-15.26-.34s-9.16-4.38-10.26-8.35c-1.62-6.07,4.45-11.72,10.58-15.63a113.2,113.2,0,0,1,30.16-13.28,37.47,37.47,0,0,1,3.21,2.52,47.52,47.52,0,0,1,13.46,19.05Z"/><path class="cls-25" d="M165.31,187.42a12.13,12.13,0,0,0,2.07-1.19c6.52-4.72,2-13.63,2-13.63-6.79-4.38-10.7-13.23-5.6-16s11.16,2.61,11.16,2.61a16.5,16.5,0,0,1-1.42-4.76c9.41-2.52,18.36-4.81,25.83-10.31,7.28-5.38,12.13-13.09,11.67-21s-6.86-15.59-16.31-18.12a43.08,43.08,0,0,0-13.9-.9c-15.67,1.08-31.13,6.3-41.69,15.49s-15.66,22.47-11.74,34.47c3.07,9.38,10.93,15.89,18.25,23.28C149.09,180.93,157.81,190.93,165.31,187.42Z"/><rect class="cls-26" x="688.1" y="314.82" width="294.55" height="8.09"/><rect class="cls-26" x="688.1" y="334.46" width="294.55" height="8.09"/><rect class="cls-26" x="688.1" y="354.1" width="294.55" height="8.09"/><rect class="cls-26" x="688.1" y="373.75" width="294.55" height="8.09"/><rect class="cls-27" x="688.1" y="413.56" width="112.24" height="8.09"/><rect class="cls-27" x="688.1" y="432.81" width="112.24" height="8.09"/><rect class="cls-27" x="688.1" y="452.05" width="112.24" height="8.09"/><rect class="cls-27" x="688.1" y="471.29" width="112.24" height="8.09"/><rect class="cls-27" x="688.1" y="490.54" width="112.24" height="8.09"/></g></g></g></svg>