<?xml version="1.0" encoding="utf-8"?>
<!-- Generator: Adobe Illustrator 26.0.1, SVG Export Plug-In . SVG Version: 6.00 Build 0)  -->
<svg version="1.1" id="Layer_1" xmlns="http://www.w3.org/2000/svg" xmlns:xlink="http://www.w3.org/1999/xlink" x="0px" y="0px"
	 viewBox="0 0 1280 1024" style="enable-background:new 0 0 1280 1024;" xml:space="preserve">
<style type="text/css">
	.st0{fill:#24D189;}
	.st1{fill:#FFFFFF;}
	.st2{fill:#82C937;}
	.st3{opacity:0.3;fill:#409E6F;}
	.st4{fill:#ECA0A4;}
	.st5{opacity:0.5;}
	.st6{fill:#4A1200;}
	.st7{fill:#284D21;}
	.st8{fill:#C1DAE6;}
	.st9{fill:#3B651A;}
	.st10{fill:#FFFFFF;stroke:#231F20;stroke-width:0.4351;stroke-miterlimit:10;}
	.st11{fill:#CE808B;}
	.st12{opacity:0.5;fill:#CE808B;}
	.st13{opacity:0.5;fill:#ECA0A4;}
	.st14{fill:#333333;}
	.st15{opacity:0.5;fill:#333333;}
	.st16{fill:#E6E7E8;}
	.st17{opacity:0.5;fill:#3B651A;}
	.st18{fill:#231F20;}
	.st19{opacity:0.5;fill:#409E6F;}
	.st20{fill:#6D492C;}
	.st21{fill:#B5D0DE;}
	.st22{fill:#003B67;}
	.st23{fill:#8E572A;}
	.st24{opacity:0.5;fill:#24D189;}
	.st25{opacity:0.3;fill:#82C937;}
</style>
<g>
	<g>
		<g>
			<ellipse class="st0" cx="465.4" cy="596.3" rx="46.4" ry="36.6"/>
		</g>
		<path class="st1" d="M481.1,599.4c5.4-4.6,5.1-11.7-0.6-16c-5.8-4.3-14.9-4.1-20.3,0.5c-4.9,4.1-5.1,10.4-0.8,14.7l-12.9,10.8
			c-0.8,0.7-0.8,1.8,0.1,2.4c0.9,0.7,2.3,0.6,3.1-0.1l12.9-10.8C468.3,604.1,476.2,603.5,481.1,599.4z M463.8,597.4
			c-4-3-4.2-8-0.4-11.1c3.8-3.2,10.1-3.3,14.1-0.4c4,3,4.2,8,0.4,11.1C474.2,600.2,467.8,600.3,463.8,597.4z"/>
	</g>
	<g>
		<g>
			<ellipse class="st0" cx="1030.9" cy="492.5" rx="46.4" ry="36.6"/>
		</g>
		<g>
			<path class="st1" d="M1038.5,501.6c0,0.3-0.4,0.5-0.9,0.5h-13.4c-0.5,0-0.9-0.2-0.9-0.5l0,0c0-0.3,0.4-0.5,0.9-0.5h13.4
				C1038.1,501.1,1038.5,501.4,1038.5,501.6L1038.5,501.6z"/>
			<path class="st1" d="M1037.9,503.3c0,0.3-0.4,0.5-0.8,0.5h-12.4c-0.5,0-0.8-0.2-0.8-0.5l0,0c0-0.3,0.4-0.5,0.8-0.5h12.4
				C1037.6,502.7,1037.9,503,1037.9,503.3L1037.9,503.3z"/>
			<path class="st1" d="M1037.6,505.1c0,0.3-0.4,0.5-0.8,0.5h-11.7c-0.4,0-0.8-0.2-0.8-0.5l0,0c0-0.3,0.4-0.5,0.8-0.5h11.7
				C1037.2,504.6,1037.6,504.8,1037.6,505.1L1037.6,505.1z"/>
			<path class="st1" d="M1036.2,506.3h-10.6c-0.4,0-0.7,0.3-0.7,0.7c0,0.4,0.3,0.7,0.7,0.7h1.3c0,0.5,0.5,0.9,1.1,0.9h5.7
				c0.6,0,1.1-0.4,1.1-0.9h1.3c0.4,0,0.7-0.3,0.7-0.7C1036.9,506.6,1036.6,506.3,1036.2,506.3z"/>
			<g>
				<path class="st1" d="M1032.2,495.7c0-0.3,0.2-0.7,0.6-0.8l0.6-0.3c1.3-0.7,2.1-1.8,2.1-3.1c0-2-2.1-3.6-4.6-3.6
					s-4.6,1.6-4.6,3.6c0,1.2,0.8,2.4,2.1,3.1l0.6,0.3c0.4,0.2,0.6,0.5,0.6,0.8v4.6h0.1h2.4h0.1V495.7z"/>
				<path class="st1" d="M1030.9,476.5c-7.5,0-13.6,4.8-13.6,10.7c0,3.8,2.5,7.1,6.2,9v3.6c0,0.3,0.3,0.6,0.8,0.6h2.7l0-4.1
					c-2.1-1-3.3-2.8-3.3-4.7c0-3.1,3.2-5.7,7.2-5.7c4,0,7.2,2.5,7.2,5.7c0,1.9-1.2,3.7-3.3,4.7l0,0v4.1h2.8c0.4,0,0.8-0.3,0.8-0.6
					v-3.6c3.7-1.9,6.2-5.2,6.2-9C1044.5,481.3,1038.4,476.5,1030.9,476.5z"/>
			</g>
		</g>
	</g>
	<g>
		<g>
			<ellipse class="st0" cx="157.4" cy="153.7" rx="46.4" ry="36.6"/>
		</g>
		<path class="st1" d="M177.7,155.4v-3.5c0-0.6-0.6-1-1.3-1h-4.6c-0.4-1.2-1-2.4-1.8-3.4l3.2-2.5c0.5-0.4,0.5-1,0-1.4l-3.1-2.4
			c-0.5-0.4-1.3-0.4-1.8,0l-3.2,2.5c-1.3-0.6-2.8-1.1-4.3-1.4v-3.6c0-0.6-0.6-1-1.3-1h-4.4c-0.7,0-1.3,0.4-1.3,1v3.6
			c-1.6,0.3-3,0.8-4.3,1.4l-3.2-2.5c-0.5-0.4-1.3-0.4-1.8,0l-3.1,2.4c-0.5,0.4-0.5,1,0,1.4l3.2,2.5c-0.8,1-1.4,2.2-1.8,3.4h-4.6
			c-0.7,0-1.3,0.4-1.3,1v3.5c0,0.6,0.6,1,1.3,1h4.6c0.4,1.2,1,2.4,1.8,3.4l-3.2,2.5c-0.5,0.4-0.5,1,0,1.4l3.1,2.4
			c0.5,0.4,1.3,0.4,1.8,0l3.2-2.5c1.3,0.6,2.8,1.1,4.3,1.4v3.6c0,0.6,0.6,1,1.3,1h4.4c0.7,0,1.3-0.4,1.3-1v-3.6
			c1.6-0.3,3-0.8,4.3-1.4l3.2,2.5c0.5,0.4,1.3,0.4,1.8,0l3.1-2.4c0.5-0.4,0.5-1,0-1.4l-3.2-2.5c0.8-1,1.4-2.2,1.8-3.4h4.6
			C177.1,156.4,177.7,156,177.7,155.4z M159.2,159.8c-5.8,1-10.9-3-9.6-7.6c0.7-2.3,3-4.2,5.9-4.7c5.8-1,10.9,3,9.6,7.6
			C164.5,157.4,162.1,159.3,159.2,159.8z"/>
	</g>
	<g>
		<g>
			<path class="st2" d="M956.5,182.3c0-1.7-0.1-3.4-0.2-5l20.6-8.3l-5-22.4l-22.9-2.2c-1.3-3.2-2.8-6.4-4.4-9.5l15.7-13.3
				l-14.4-19.7l-22.6,4.1c-2.6-2.7-5.3-5.3-8.2-7.7l9-16.8l-22.1-14.6l-19.4,9.9c-3.6-1.8-7.3-3.5-11.1-5.1l1.2-18.2l-27.1-7.8
				l-13.9,14.5c-4.1-0.7-8.3-1.3-12.6-1.7L812.4,41h-28.9l-6.8,17.4c-4.3,0.4-8.5,1-12.6,1.7l-13.9-14.5l-27.1,7.8l1.2,18.2
				c-3.8,1.6-7.5,3.3-11.1,5.1l-19.4-9.9l-22.1,14.6l9,16.8c-2.9,2.5-5.6,5.1-8.2,7.7l-22.6-4.1l-14.4,19.7l15.7,13.3
				c-1.6,3.1-3.1,6.3-4.4,9.5l-22.9,2.2l-5,22.4l20.6,8.3c-0.1,1.7-0.2,3.3-0.2,5c0,1.7,0.1,3.4,0.2,5l-20.6,8.3l5,22.4l22.9,2.2
				c1.3,3.2,2.8,6.4,4.4,9.5l-15.7,13.3l14.4,19.7l22.6-4.1c2.6,2.7,5.3,5.3,8.2,7.7l-9,16.8l22.1,14.6l19.4-9.9
				c3.6,1.8,7.3,3.5,11.1,5.1l-1.2,18.2l27.1,7.8l13.9-14.5c4.1,0.7,8.3,1.3,12.6,1.7l6.8,17.4h28.9l6.8-17.4
				c4.3-0.4,8.5-1,12.6-1.7l13.9,14.5l27.1-7.8l-1.2-18.2c3.8-1.6,7.5-3.3,11.1-5.1l19.4,9.9l22.1-14.6l-9-16.8
				c2.9-2.5,5.6-5.1,8.2-7.7l22.6,4.1l14.4-19.7l-15.7-13.3c1.6-3.1,3.1-6.3,4.4-9.5l22.9-2.2l5-22.4l-20.6-8.3
				C956.4,185.6,956.5,184,956.5,182.3z M798,220.1c-26.5,0-47.9-16.9-47.9-37.8s21.5-37.8,47.9-37.8c26.5,0,47.9,16.9,47.9,37.8
				S824.5,220.1,798,220.1z"/>
		</g>
		<g>
			<path class="st1" d="M798,272.4c-63,0-114.3-40.4-114.3-90.1S735,92.1,798,92.1c63,0,114.3,40.4,114.3,90.1S861,272.4,798,272.4z
				 M798,94.3c-61.5,0-111.5,39.4-111.5,87.9s50,87.9,111.5,87.9c61.5,0,111.5-39.4,111.5-87.9S859.5,94.3,798,94.3z"/>
		</g>
		<g>
			<path class="st1" d="M798,277.9c-66.8,0-121.2-42.9-121.2-95.6S731.2,86.7,798,86.7c66.8,0,121.2,42.9,121.2,95.6
				S864.8,277.9,798,277.9z M798,87.7c-66.1,0-120,42.4-120,94.6s53.8,94.6,120,94.6c66.1,0,119.9-42.4,119.9-94.6
				S864.1,87.7,798,87.7z"/>
		</g>
	</g>
	<g>
		<g>
			<path class="st2" d="M682.6,419.7c1.4-7.7,1.6-15.4,0.7-22.9l22.2-19.3l-14.5-29.6l-32.9-2.6c-5.8-6.1-12.5-11.7-20.1-16.6
				l-1.6-26.1l-36.8-12.9l-25.6,16.5c-9.7-1.1-19.5-1.3-29.1-0.6l-24.5-17.5L483,299.6l-3.3,26c-7.7,4.6-14.8,9.9-21.1,15.8
				l-33.1,1.3l-16.3,29l21,20.2c-1.4,7.7-1.6,15.4-0.7,22.9l-22.2,19.3l14.5,29.6l32.9,2.6c5.8,6.1,12.5,11.7,20.1,16.6l1.6,26.1
				l36.8,12.9l25.6-16.5c9.7,1.1,19.5,1.3,29.1,0.6l24.5,17.5l37.5-11.4l3.3-26c7.7-4.6,14.8-9.9,21.1-15.8l33.1-1.3l16.3-29
				L682.6,419.7z M522.6,466c-42.1-14.7-61.1-53.6-42.4-86.8c18.7-33.2,68-48.2,110.1-33.5c42.1,14.7,61.1,53.6,42.4,86.8
				C614.1,465.7,564.7,480.7,522.6,466z"/>
		</g>
		<g>
			<path class="st1" d="M519.4,471.7c-46.1-16.1-66.9-58.8-46.5-95.1s74.6-52.8,120.7-36.7c46.1,16.1,66.9,58.8,46.5,95.1
				S565.5,487.8,519.4,471.7z M593.1,340.6c-45.6-15.9-99.1,0.3-119.3,36.3s0.4,78.1,46,94.1c45.6,15.9,99.1-0.3,119.3-36.3
				S638.7,356.6,593.1,340.6z"/>
		</g>
		<g>
			<path class="st1" d="M515.2,479.1c-51.2-17.9-74.4-65.4-51.7-105.8c22.7-40.4,82.9-58.7,134.1-40.8
				c51.2,17.9,74.4,65.4,51.7,105.8C626.6,478.7,566.5,497,515.2,479.1z M596.8,334.2c-50.1-17.5-108.9,0.4-131.1,39.8
				c-22.2,39.5,0.5,85.9,50.5,103.4c50.1,17.5,108.9-0.4,131.1-39.8C669.5,398.1,646.8,351.7,596.8,334.2z"/>
		</g>
	</g>
	<path class="st3" d="M492.6,964.1c0,5.4-89.9,9.9-200.8,9.9C180.9,974,91,969.6,91,964.1c0-5.4,89.9-9.9,200.8-9.9
		C402.7,954.3,492.6,958.7,492.6,964.1z"/>
	<path class="st3" d="M760.8,964.1c0,5.4-55,9.9-122.8,9.9c-67.8,0-122.8-4.4-122.8-9.9c0-5.4,55-9.9,122.8-9.9
		C705.9,954.3,760.8,958.7,760.8,964.1z"/>
	<path class="st3" d="M1188,964.1c0,5.4-92.4,9.9-206.5,9.9c-114,0-206.5-4.4-206.5-9.9c0-5.4,92.4-9.9,206.5-9.9
		C1095.6,954.3,1188,958.7,1188,964.1"/>
	<path class="st4" d="M860.3,667.3l-21.1,13.1l-13.8-13.8c-5.2,2-11.5,1.1-15.5-2.5l-25.2-22.7c-3.4-3-3.8-7.4-1.3-10.8
		c0.2-0.2,0.4-0.5,0.6-0.7l16.2-17.8c1.9-2.1,5.9-2.2,8-0.2l26.9,25.9l1.3-1.9c0.9-1.4,1.1-2.9,0.6-4.4l-1.5-4.7
		c-0.7-2.1,0.6-4.3,3-5.3c3-1.2,6.7-0.2,8,2.3l3,5.7c0.3,0.5,0.4,1.2,0.4,1.8l-0.9,17.1c-0.1,1.7-1.1,3.3-2.7,4.4l-2.1,1.5
		L860.3,667.3z"/>
	<path class="st2" d="M1012.1,683.1l-98,19.6c-4.4,0.9-9.1-0.2-12.2-2.8l-47.1-40L828.5,676l59.3,56.7c2.8,2.7,7.3,4,11.7,3.4
		l108.7-15c0,0,26.7-4.9,24-21.5C1029.5,683.1,1012.1,683.1,1012.1,683.1z"/>
	<g class="st5">
		<g>
			<path class="st4" d="M817.2,634.8c-0.6,0.3-1.4,0.3-1.9,0c-0.1-0.1-0.2-0.1-0.3-0.2l-18.5-18.2l1.9-2.1l19.1,18.7
				C818,633.5,817.9,634.3,817.2,634.8z"/>
		</g>
		<g>
			<path class="st4" d="M808.8,640c-0.6,0.4-1.4,0.4-2,0.1c-0.1-0.1-0.2-0.2-0.3-0.3L790,623.5l2-2.1l17.1,16.8
				C809.6,638.7,809.6,639.5,808.8,640z"/>
		</g>
		<g>
			<path class="st4" d="M800.5,645.2c-0.6,0.4-1.3,0.4-1.9,0c-0.1-0.1-0.2-0.1-0.3-0.2l-14.6-14.3c0.2-0.2,0.4-0.5,0.6-0.7l1.3-1.5
				l15.2,14.9C801.3,643.9,801.2,644.8,800.5,645.2z"/>
		</g>
	</g>
	<path class="st6" d="M927.3,589.6c-0.2,0.8-0.9,1.5-1.3,2.2c-1.1,1.9-0.6,4.2,0.6,6c1.2,1.8,3.1,3.4,4.9,4.9
		c0.8-0.5,0.8-1.4,0.9-2.2c0.1-4.5,0.9-9.4,4.8-12.7c0.8-0.7,1.8-1.3,2.4-2.1c1.1-1.4,1-3.2,1.9-4.7c1.3-2.1,4.6-3.8,3.9-6.1
		c-0.2-0.6-0.7-1.2-1.3-1.7c-2.8-2.6-7-4.9-11.1-3.9c-0.1,2.7-2.8,4.7-4.8,6.8c-2.2,2.3-3.7,5.4-2.7,8.2
		C926.2,586.1,927.8,587.8,927.3,589.6z"/>
	<path class="st0" d="M1134.7,897c-30.1-53.1-92.9-89.7-165.5-89.7S833.6,843.8,803.6,897c-17.8,31.5,12.4,67,56.2,67h218.7
		C1122.2,963.9,1152.5,928.5,1134.7,897"/>
	<path class="st0" d="M401.1,963.9H182.3c-43.7,0-74-35.5-56.1-67c6.9-12.1,15.4-23.5,25.5-33.6c33.8-34.3,84-56.1,140-56.1
		c72.7,0,135.5,36.6,165.5,89.7c0.3,0.5,0.6,1,0.8,1.5C474.1,929.5,444.1,963.9,401.1,963.9z"/>
	<g>
		<g>
			<path class="st7" d="M949.5,951.3v7.1c0,1.6-1.6,2.9-3.6,2.9h-46.7c-2,0-3.7-1.3-3.7-2.9v-7.8c0-0.3,0.1-0.6,0.2-0.9l5.2-12.2
				l4.4-10.1l1.5-17.1h31.6l3.4,17.1l3.5,10.5l4.2,12.6C949.5,950.8,949.5,951,949.5,951.3z"/>
			<path class="st8" d="M936.6,943.7h-25.7c3-7,4.9-23.7,5.8-33.4H929c0.5,3.2,1.3,7,2.2,11C933.3,930.7,936.6,943.7,936.6,943.7z"
				/>
			<path class="st9" d="M951.6,953v7.7c0,1.7-1.8,3.1-3.9,3.1h-50.3c-2.2,0-3.9-1.4-3.9-3.1v-8.4c0-0.3,0.1-0.7,0.2-1l2.4-5.5
				c2.3-5.4,8.2-9.4,15.4-10.4c3.6-0.5,7.3-0.8,11.2-0.8c4.2,0,8.3,0.3,12.2,0.9c7.3,1.2,13.1,5.6,15,11.3l1.8,5.3
				c0,0.1,0,0.1,0.1,0.2C951.6,952.6,951.6,952.8,951.6,953z"/>
			<path class="st1" d="M953.3,960.7c0,1.8-1.9,3.2-4.2,3.2h-53.3c-2.3,0-4.2-1.4-4.2-3.2v-7.4c0-0.6,0.6-1.1,1.3-1.1h58.9
				c0.7,0,1.3,0.5,1.3,1C953.3,955.6,953.3,960.7,953.3,960.7z"/>
		</g>
		<g>
			<path class="st7" d="M988.7,951.3v7.1c0,1.6,1.6,2.9,3.6,2.9h46.7c2,0,3.7-1.3,3.7-2.9v-7.8c0-0.3-0.1-0.6-0.2-0.9l-5.2-12.2
				l-4.4-10.1l-1.5-17.1h-31.6l-3.4,17.1l-3.5,10.5l-4.2,12.6C988.8,950.8,988.7,951,988.7,951.3z"/>
			<path class="st8" d="M1001.7,943.7h25.7c-3-7-4.9-23.7-5.8-33.4h-12.3c-0.5,3.2-1.3,7-2.2,11
				C1004.9,930.7,1001.7,943.7,1001.7,943.7z"/>
			<path class="st9" d="M986.6,953v7.7c0,1.7,1.8,3.1,3.9,3.1h50.3c2.2,0,3.9-1.4,3.9-3.1v-8.4c0-0.3-0.1-0.7-0.2-1l-2.4-5.5
				c-2.3-5.4-8.2-9.4-15.4-10.4c-3.6-0.5-7.3-0.8-11.2-0.8c-4.2,0-8.3,0.3-12.2,0.9c-7.3,1.2-13.1,5.6-15,11.3l-1.8,5.3
				c0,0.1,0,0.1-0.1,0.2C986.7,952.6,986.6,952.8,986.6,953z"/>
			<path class="st1" d="M984.9,960.7c0,1.8,1.9,3.2,4.2,3.2h53.3c2.3,0,4.2-1.4,4.2-3.2v-7.4c0-0.6-0.6-1.1-1.3-1.1h-58.9
				c-0.7,0-1.3,0.5-1.3,1C985,955.6,984.9,960.7,984.9,960.7z"/>
		</g>
	</g>
	<path class="st10" d="M881.8,715c0,0-0.5,21.4,12.2,33.8c12.7,12.4,63.9-33.8,63.9-33.8H881.8z"/>
	<g>
		<path class="st2" d="M928.6,720.5l18-81.6l-16.1,7c-20.3,8.9-36.6,22.9-44.9,40c-0.5,1.1-1,2.1-1.5,3.2
			c-2.1,4.9-3.2,10.2-3.4,15.5l-0.7,15.9H928.6z"/>
		<path class="st2" d="M1009.6,720.5l-18-81.6l16.1,7c20.3,8.9,36.6,22.9,44.9,40c0.5,1.1,1,2.1,1.5,3.2c2.1,4.9,3.2,10.2,3.4,15.5
			l0.7,15.9H1009.6z"/>
	</g>
	<path class="st7" d="M903,789.8L902,815c-0.5,13,9.2,23.7,21.3,23.7h91.6c12.1,0,21.8-10.8,21.3-23.7l-0.9-25.1H903z"/>
	<path class="st1" d="M1039.2,793.4l-4.6-106.3c-0.6-13.4-7.2-26.1-18.4-34.9l-4.5-3.5c-11.8-9.3-27-14.1-42.6-13.4h0
		c-15.6-0.7-30.8,4.1-42.6,13.4l-4.5,3.5c-11.1,8.8-17.8,21.4-18.4,34.9L899,793.4H1039.2z"/>
	<path class="st11" d="M992.5,644.4c-0.3,1.7-0.9,4.2-2,6.8c-2.4,5.6-7.3,11.8-17.4,11.8h-7.9c-14.9,0-18.6-13.4-19.5-18.6
		c-0.2-1.2,0.3-2.5,1.4-3.4c0.7-0.5,1.5-0.9,2.4-1c0.2-0.1,0.5-0.1,0.7-0.1l3-19.5h31.9l3,19.5c1.1,0.1,2.3,0.5,3.1,1.2
		C992.2,641.9,992.8,643.2,992.5,644.4z"/>
	<path class="st12" d="M992.5,644.4c-0.3,1.7-0.9,4.2-2,6.8c-23.3,0.4-35.5-6.5-41-11.2c0.2-0.1,0.5-0.1,0.7-0.1l3-19.5h31.9l3,19.5
		c1.1,0.1,2.3,0.5,3.1,1.2C992.2,641.9,992.8,643.2,992.5,644.4z"/>
	<path class="st4" d="M1005.3,604.6c-0.3,1.9-0.8,3.8-1.4,5.6c-6,18.7-24.1,31.6-43,29.5c-19.9-2.2-33.4-20.3-30.8-41
		c0-0.8,0.1-1.5,0.3-2.3c0.5-3,1.4-5.9,2.5-8.6c1.7-4.3,4.1-8.2,7-11.7c8.6-10.2,21.6-16.2,34.9-14.7c14.1,1.6,24.9,11.1,29.2,23.9
		c0.3,1,0.6,2.1,0.9,3.1C1006.1,593.3,1006.3,598.9,1005.3,604.6z"/>
	<path class="st13" d="M1004.9,588.2c-3.7,2.5-7.9,4.8-12.7,6.8c-27.4,11.9-47.8,1.8-59.3-7.4c1.7-4.3,4.1-8.2,7-11.7
		c8.6-10.2,21.6-16.2,34.9-14.7c14.1,1.6,24.9,11.1,29.2,23.9C1004.3,586.1,1004.6,587.1,1004.9,588.2z"/>
	<g>
		<g>
			<path class="st9" d="M952.8,805.2l-5.6,100.3l-0.7,13.3h-48.3l-0.7-13.3l-5-100.3c0-13.2,13.6-24.1,30.2-24.1
				C939.2,781.2,952.8,792,952.8,805.2z"/>
			<polygon class="st9" points="947.2,905.5 946.5,918.8 898.2,918.8 897.5,905.5 			"/>
		</g>
		<g>
			<path class="st9" d="M985.5,805.2l5.6,100.3l0.7,13.3h48.3l0.7-13.3l5-100.3c0-13.2-13.6-24.1-30.2-24.1
				C999,781.2,985.5,792,985.5,805.2z"/>
			<polygon class="st9" points="991,905.5 991.8,918.8 1040.1,918.8 1040.8,905.5 			"/>
		</g>
	</g>
	<path class="st14" d="M1047.7,779.5H890.6c-4.8,0-9-2.9-9.3-6.5l-6-72.1c-0.3-4.2,3.6-7.5,8.9-7.5h169.9c5.2,0,9.2,3.4,8.9,7.5
		l-6,72.1C1056.7,776.6,1052.5,779.5,1047.7,779.5z"/>
	<path class="st14" d="M1056.7,781.7L1056.7,781.7c0,2.1-2,3.7-4.5,3.7h-166c-2.6,0-4.6-1.6-4.6-3.6v-0.1c0-0.3,0.1-0.6,0.2-0.9
		c0.5-1.6,2.3-2.7,4.4-2.7h166c2.1,0,3.9,1.2,4.4,2.7C1056.6,781.1,1056.7,781.4,1056.7,781.7z"/>
	<path class="st1" d="M979.4,740.4V731l-10.3-4.7l-10.3,4.7v9.4l10.3,4.7L979.4,740.4z M964.5,737.8v-4.2l4.6-2.1l4.6,2.1v4.2
		l-4.6,2.1L964.5,737.8z"/>
	<path class="st15" d="M1056.5,780.8H881.7c0.5-1.6,2.3-2.7,4.4-2.7h166C1054.2,778.1,1056.1,779.2,1056.5,780.8z"/>
	<path class="st6" d="M968.3,546.6c-1.3,0.4-2.6,0.8-3.9,1.2c-6.3,1.9-14.9-1.3-19.8,2.1c-2.9,2-3.1,5.5-6.3,7.3
		c-2.5,1.4-6.2,1.3-8.6,2.7c-2.8,1.7-2.8,5.1-0.6,7.3c1,1,2.3,1.9,2.4,3.1c0,0.9-0.7,1.7-1.3,2.5c-1.3,1.8-1.8,3.8-1.4,5.8
		c0.2,0.9,0.7,2,1.9,2.3c3.4,0.9,3.8-3.4,7.7-2.6c1.8,0.4,3.7,2.3,6,2.8c2.7,0.6,5.5,0.1,8.1,1.1c3.2,1.2,4.6,4,6.1,6.4
		c1.5,2.4,4.1,5,7.7,5c6.7,0,7.7-3,12.2,2c3.7,4.1,6,8.8,6.1,13.7c2.6-2.4,8.3-2.3,11.1,0c2.9,2.3,2.7,6.2-0.2,8.4
		c-2.8,2.2-7.8,2.7-11.6,1.4c-0.6,1.8-1.2,3.7-0.8,5.6c0.4,1.9,2.2,3.7,4.7,4.1c1.6,0.3,3.5-0.1,4.9,0.6c1,0.5,1.5,1.3,2.5,1.8
		c2.4,1.1,5-1,7.3-2.1c3.8-1.7,9.8,0,12.9-2.3c1.8-1.3,1.6-3.4,1.5-5.2c-0.3-3.7,0.1-8,4.1-10.3c1.3-0.7,2.8-1.1,4.1-1.7
		c4.6-2.2,5.8-7.4,2.6-10.8c-1.5-1.6-3.9-3-3.9-4.9c0-2,2.7-3.4,4-5.1c1.7-2.2,1.1-5.3-1.5-7.1c-2.8-1.9-4.9-3.7-5.8-6.6
		c-0.9-2.8,1.1-5.7,0.8-8.5c-0.3-3.4-4.2-6.6-8.8-7.1c-4.3-0.5-9.7,0.7-12.3-1.8c-1.2-1.2-1.2-2.9-1.7-4.4
		c-1.3-4.3-6.7-7.4-12.5-8.4C979.2,543.7,973.9,545,968.3,546.6z"/>
	<g>
		<g>
			<g>
				<path class="st4" d="M633.6,954.8v5.2c0,1.2-1.2,2.1-2.7,2.1h-34.2c-1.5,0-2.7-0.9-2.7-2.1v-5.7c0-0.2,0-0.5,0.1-0.7l3.8-8.9
					l3.2-7.4h26.7l2.5,7.7l3.1,9.2C633.6,954.4,633.6,954.6,633.6,954.8z"/>
				<path class="st9" d="M635.2,956v5.6c0,1.3-1.3,2.3-2.9,2.3h-36.8c-1.6,0-2.9-1-2.9-2.3v-6.1c0-0.3,0-0.5,0.2-0.7l4.1-9.6
					c4.9-1.7,10.8-2.7,17-2.7c6.7,0,12.8,1.1,17.9,3l3.3,9.9c0,0.1,0,0.1,0,0.1C635.1,955.7,635.2,955.9,635.2,956z"/>
				<path class="st16" d="M635.2,956v5.6c0,1.3-1.3,2.3-2.9,2.3h-36.8c-1.6,0-2.9-1-2.9-2.3v-6h42.6
					C635.1,955.7,635.2,955.9,635.2,956z"/>
			</g>
			<g>
				<path class="st4" d="M647,954.8v5.2c0,1.2,1.2,2.1,2.7,2.1h34.2c1.5,0,2.7-0.9,2.7-2.1v-5.7c0-0.2,0-0.5-0.1-0.7l-3.8-8.9
					l-3.2-7.4h-26.7l-2.5,7.7l-3.1,9.2C647.1,954.4,647,954.6,647,954.8z"/>
				<path class="st9" d="M645.5,956v5.6c0,1.3,1.3,2.3,2.9,2.3h36.8c1.6,0,2.9-1,2.9-2.3v-6.1c0-0.3,0-0.5-0.2-0.7l-4.1-9.6
					c-4.9-1.7-10.8-2.7-17-2.7c-6.7,0-12.8,1.1-17.9,3l-3.3,9.9c0,0.1,0,0.1,0,0.1C645.5,955.7,645.5,955.9,645.5,956z"/>
				<path class="st16" d="M645.5,956v5.6c0,1.3,1.3,2.3,2.9,2.3h36.8c1.6,0,2.9-1,2.9-2.3v-6h-42.6
					C645.5,955.7,645.5,955.9,645.5,956z"/>
			</g>
		</g>
		<path class="st4" d="M735.4,434.7c0.9,14.7,1.8,29.5,2.6,44.2c1.2,19.4,0.6,39.3-3,58.6c-0.4,2.3-0.9,4.6-1.4,6.8
			c-1.4,6.5-4,18.7-17.3,15.6c-7.7-1.8-9.7-9-10.3-14.9c-1.3-13.4-1.1-26.7-0.1-39.9c1.8-24.3,6.4-48.4,10-72.9
			c-1.7-1.6-3-3.6-3.8-5.8c-0.4-1.1-1.1-2.1-2-3.1c-1.9-1.9-3.7-4.6-3.5-7.6c0.6-5.6,8.8-7.6,8.8-7.6v-15.9c0,0,0.1-5.1,2.5-5.6
			c2.4-0.4,4.6,1.3,4.8,6.3c0.1,2.3,0.5,7.2,0.9,11.6c0.1,1.3,1.7,2.3,3.6,2.3c8.9,0,16.1,6.7,16.1,14.9
			C743.6,427.3,740.3,432.1,735.4,434.7z"/>
		<path class="st12" d="M735.1,537.5c-0.4,2.3-0.9,4.6-1.4,6.8c-1.4,6.5-4,18.7-17.3,15.6c-7.7-1.8-9.7-9-10.3-14.9
			c-1.3-13.4-1.1-26.7-0.1-39.9C713.1,509.9,727.6,521.2,735.1,537.5z"/>
		<path class="st4" d="M629.6,575.4c0,0-55,66.2-68.3,50.2c-9.3-11.2-12.7-31-13.9-41.9c-0.5-4.7-0.6-7.7-0.6-7.7l38.3-0.3
			L629.6,575.4z"/>
		<path class="st12" d="M585.1,575.6v12.5l-37.7-4.5c-0.5-4.7-0.6-7.7-0.6-7.7L585.1,575.6z"/>
		<polygon class="st11" points="659.5,504.9 623.3,503.7 626.4,488.3 628,480.8 657.3,481.8 658.6,495.7 		"/>
		<path class="st12" d="M658.6,495.7c-17.5-1.3-27.5-5-32.2-7.4l1.5-7.4l29.3,1L658.6,495.7z"/>
		<path class="st2" d="M593.4,580.4l8.6-75.8l-21.1,10c-15.4,8.7-27.3,21.2-34.1,35.7c-2.2,4.7-3.3,9.8-3.6,14.9l-0.7,15.3H593.4z"
			/>
		<path class="st2" d="M685,566.3l-8.6-61.7l21.1,8.1c16.3,7.5,51.4,33,29.2,48.5C716.1,568.5,697.9,566.3,685,566.3z"/>
		<path class="st9" d="M704.8,677.6l-1.8,27.8l-14.9,233.6h-43.3V719.4c0-2-2-3.6-4.5-3.6c-2.6,0-4.6,1.6-4.6,3.6v219.7h-43.3
			L577,694.3l-1.1-16.7H704.8z"/>
		<polygon class="st17" points="704.8,677.6 703.1,705.5 577,694.3 575.9,677.6 		"/>
		<path class="st1" d="M686.9,510l-4.4-3c-11.6-7.9-26.7-12.1-42.1-11.5h0l0,0c-15.4-0.6-30.5,3.5-42.1,11.5l-4.4,3
			c-11,7.5-17.6,18.3-18.2,29.8l-7.5,148.1h52.1h40.3h52.1L705,539.8C704.5,528.3,697.9,517.6,686.9,510z"/>
		<path class="st4" d="M691.1,459.9c-0.1,0.2-0.2,0.5-0.3,0.7c-0.8,2.4-1.8,4.7-3,6.8c-9.2,16.5-28.5,26.3-46.6,22.6
			c-19.9-4-31.2-22.7-26.2-42.5c0.3-0.9,0.5-1.9,0.8-2.9c3.4-10.5,10.9-19.2,20-24.6c4.4-2.6,9.2-4.5,14.2-5.5c5.2-1,10.6-1,15.8,0
			c5.2,1.1,9.9,3.1,13.8,6C691.1,429,696.1,444.3,691.1,459.9z"/>
		<path class="st13" d="M691.1,459.9c-0.1,0.2-0.2,0.5-0.3,0.7c-42.8-1.7-50.4-27.8-50.4-27.8l-4.7-12.8c4.4-2.6,9.2-4.5,14.2-5.5
			c5.2-1,10.6-1,15.8,0c5.2,1.1,9.9,3.1,13.8,6C691.1,429,696.1,444.3,691.1,459.9z"/>
		<path class="st18" d="M621.5,420.1c3.3-3.3,7-6.5,11.4-8.8c6.5-3.4,14.5-4.7,22.3-4.5c7.8,0.2,15.5,1.7,22.8,3.8
			c2.9,0.8,5.8,1.8,8.3,3.2c3.1,1.7,5.5,4.1,8,6.3c2.5,2.2,5.2,4.4,8.7,5.6c2.4,0.8,5.2,1.1,7.7,0.6c1.5-0.3,3,0.6,2.7,1.8
			c-1,4.4-3.9,8.5-7.8,11.7c-4.9,3.9-11.3,6.5-18,7.9c-11.6,2.4-25.1,0.9-33.5-5.8c-2.9,3.5-8.2,5.7-13.5,5.6c-0.4,0-0.9,0-1.3-0.2
			c-0.4-0.2-0.5-0.6-0.7-0.9c-1.3-2.6-4.2-5.3-7.8-5.1c-3.6,0.2-5.8,3.2-6.3,6c-0.7,4,1.6,8.8,6.6,9.9c-1.4,5.9-7.2,10.9-14.3,12.8
			c-1.8,0.5-3.9,0-4.9-1.3c-5.4-7.1-6.9-16-5.1-24.2C608.8,435.6,614.3,427.3,621.5,420.1z"/>
	</g>
	<path class="st19" d="M458,898.4c-178.1,6-264.8-15.5-306.3-35.1c33.8-34.3,84-56.1,140-56.1c72.7,0,135.5,36.6,165.5,89.7
		C457.5,897.5,457.8,898,458,898.4z"/>
	<path class="st0" d="M401.1,855H182.3c-43.7,0-74-35.5-56.2-67c19.4-34.3,52.5-61.7,93-76.7c22.3-8.4,46.8-12.9,72.5-12.9
		c43.6,0,83.6,13.1,115.2,35.2c21.1,14.7,38.3,33.2,50.4,54.5C475.1,819.5,444.8,855,401.1,855z"/>
	<path class="st19" d="M406.9,733.5c-80,7-149.5-9.8-187.7-22.2c22.3-8.4,46.8-12.9,72.5-12.9C335.3,698.4,375.3,711.5,406.9,733.5z
		"/>
	<g>
		<g>
			<path class="st20" d="M236.6,671.6l0,33.1l101.9,0.1l0-4.6c0-4-2-7.9-5.7-10.8c-14.2-11-35.5-7.1-35.5-7.1l-18.7-10.6
				L236.6,671.6z"/>
			<path class="st9" d="M236.6,671.6l0,33.1l16.7,0c1.7-10.7,5.4-24.8,7.8-33.1L236.6,671.6z"/>
			<path class="st21" d="M234.1,701l0,7.3c0,0.8,0.7,1.4,1.7,1.4l103.4,0.1c0.9,0,1.7-0.6,1.7-1.4l0-7.3c0-0.7-0.7-1.4-1.7-1.4
				l-103.4-0.1C234.8,699.6,234.1,700.3,234.1,701z"/>
		</g>
		<path class="st22" d="M211.2,395.7c0,0-0.6,44.3,20.2,64.3l0,213.8h24.8l20.2-277.4L211.2,395.7z"/>
		<path class="st7" d="M211.2,395.7c0,0-0.6,44.3,20.2,64.3l0,213.8h24.8l20.2-277.4L211.2,395.7z"/>
		<g>
			<path class="st2" d="M249.9,670.9l0,33.7l103.6,0.1l0-4.7c0-4.1-2.1-8.1-5.8-10.9c-14.5-11.2-36.1-7.3-36.1-7.3l-19-10.8
				L249.9,670.9z"/>
			<path class="st1" d="M247.4,700.8l0,7.5c0,0.8,0.8,1.4,1.8,1.4l105.1,0.1c1,0,1.8-0.6,1.8-1.4l0-7.5c0-0.8-0.8-1.4-1.8-1.4
				l-105.1-0.1C248.2,699.4,247.4,700.1,247.4,700.8z"/>
		</g>
		<path class="st9" d="M210.7,388c0,0-0.2,25,12.9,42.5c13.2,17.5,23.7,29.6,23.7,29.6l-6,212.2h60.4l9.9-286.6L210.7,388z"/>
		<path class="st4" d="M393.5,221.6l-2.6,0.8l-13.6,4.1c-3.8,1.2-6.1,4.5-4.7,7.6c0,0,0,0.1,0.1,0.1l0.3,0.9l-17.4,4.3l3.8,8.3
			l3.5,7.5l16.6-4.8c2.4,3,7.2,4.5,11.7,3.4l14.8-3.6c5.9-1.4,9.1-6.4,7.1-11l-5.5-12.5C405.6,222.2,399.2,219.8,393.5,221.6z"/>
		<path class="st13" d="M393.5,221.6l-2.6,0.8l-13.6,4.1c-3.8,1.2-6.1,4.5-4.7,7.6c0,0,0,0.1,0.1,0.1l0.3,0.9l-17.4,4.3l3.8,8.3
			l3.5,7.5l16.6-4.8c2.4,3,7.2,4.5,11.7,3.4l14.8-3.6c5.9-1.4,9.1-6.4,7.1-11l-5.5-12.5C405.6,222.2,399.2,219.8,393.5,221.6z"/>
		<path class="st4" d="M391,222.3l-13.6,4.1c-3.8,1.2-6.1,4.5-4.7,7.6c0,0,0,0.1,0.1,0.1l0.3,0.9l-17.4,4.3l3.8,8.3
			c1.6,0.8,3.8,1.1,6.7,0.6c19.3-2.8,20.7-14.4,20.7-14.4l3.9,2.5c1.2,0.7,2.8,0.8,4,0.2l2.4-1.2c1.6-0.8,2.1-2.5,1.1-3.7L391,222.3
			z"/>
		<g>
			<g>
				<path class="st0" d="M569.7,187.3c0-1,0-2-0.1-3.1l12.5-5l-3-13.6l-13.9-1.4c-0.8-2-1.7-3.9-2.7-5.8l9.6-8.1l-8.8-12l-13.7,2.5
					c-1.6-1.6-3.2-3.2-5-4.7l5.5-10.2l-13.4-8.9l-11.8,6c-2.2-1.1-4.4-2.1-6.7-3.1l0.7-11.1l-16.5-4.7l-8.5,8.8
					c-2.5-0.4-5.1-0.8-7.7-1.1l-4.1-10.6h-17.5l-4.1,10.6c-2.6,0.3-5.1,0.6-7.7,1.1l-8.5-8.8L428,109l0.7,11.1c-2.3,1-4.5,2-6.7,3.1
					l-11.8-6l-13.4,8.9l5.5,10.2c-1.7,1.5-3.4,3.1-5,4.7l-13.7-2.5l-8.8,12l9.6,8.1c-1,1.9-1.9,3.8-2.7,5.8l-13.9,1.4l-3,13.6
					l12.5,5c-0.1,1-0.1,2-0.1,3.1c0,1,0,2,0.1,3.1l-12.5,5l3,13.6l13.9,1.4c0.8,2,1.7,3.9,2.7,5.8l-9.6,8.1l8.8,12l13.7-2.5
					c1.6,1.6,3.2,3.2,5,4.7l-5.5,10.2l13.4,8.9l11.8-6c2.2,1.1,4.4,2.1,6.7,3.1l-0.7,11.1l16.5,4.7l8.5-8.8c2.5,0.4,5.1,0.8,7.7,1.1
					l4.1,10.6h17.5l4.1-10.6c2.6-0.3,5.1-0.6,7.7-1.1l8.5,8.8l16.5-4.7l-0.7-11.1c2.3-1,4.5-2,6.7-3.1l11.8,6l13.4-8.9l-5.5-10.2
					c1.7-1.5,3.4-3.1,5-4.7l13.7,2.5l8.8-12l-9.6-8.1c1-1.9,1.9-3.8,2.7-5.8l13.9-1.4l3-13.6l-12.5-5
					C569.7,189.3,569.7,188.3,569.7,187.3z M473.5,228.9c-29.2,0-52.8-18.7-52.8-41.7s23.7-41.7,52.8-41.7
					c29.2,0,52.8,18.7,52.8,41.7S502.6,228.9,473.5,228.9z"/>
				<ellipse class="st0" cx="473.5" cy="187.3" rx="24.2" ry="19"/>
			</g>
			<g>
				<path class="st1" d="M473.5,244.3c-39.9,0-72.3-25.6-72.3-57s32.4-57,72.3-57c39.9,0,72.3,25.6,72.3,57S513.3,244.3,473.5,244.3
					z M473.5,132.6c-38.2,0-69.3,24.5-69.3,54.6c0,30.1,31.1,54.6,69.3,54.6c38.2,0,69.3-24.5,69.3-54.6
					C542.7,157.1,511.7,132.6,473.5,132.6z"/>
			</g>
		</g>
		<path class="st2" d="M243.7,266.3l119.5-31.9l7.9,22.1l-85.8,29.2c-3.6,1.3-46.9,12.5-47.6,9.4C237.7,295.1,239,267.7,243.7,266.3
			z"/>
		<path class="st1" d="M204.6,400.9l115.9-7.2c0,0-2.2-71.9-12.5-108.1c-1.8-6.4-4.4-11.9-7.6-16.8c-14.7-23.1-40.1-31.3-40.1-31.3
			l-18-3.9c0,0-3.3,0.8-8.4,3.9c-4.7,2.8-10.9,7.5-17.3,15.2C196.3,276.5,204.6,400.9,204.6,400.9z"/>
		<path class="st4" d="M243.3,237.2c0.1,0.1,10.3,11.3,27.6,5.2l0.4-1.1l7.1-18.1l-23.5-19l-13.6-11l0.4,7.9l1.1,25L243.3,237.2z"/>
		<path class="st13" d="M242.8,226.2c6.3,5.5,16.1,12.1,28.5,15.2l7.1-18.1l-23.5-19l-13.3-3.1L242.8,226.2z"/>
		<path class="st4" d="M384.8,244.4l18.2,11.4l11.9-11.9c4.5,1.7,9.9,0.9,13.4-2.1l21.8-19.6c2.9-2.6,3.3-6.4,1.1-9.4
			c-0.1-0.2-0.3-0.4-0.5-0.6l-14-15.4c-1.7-1.8-5.1-1.9-6.9-0.2l-23.2,22.3l-1.1-1.6c-0.8-1.2-1-2.5-0.6-3.8l1.3-4.1
			c0.6-1.8-0.5-3.7-2.6-4.6c-2.6-1.1-5.8-0.1-6.9,2l-2.6,4.9c-0.3,0.5-0.4,1-0.3,1.5l0.8,14.8c0.1,1.5,0.9,2.8,2.3,3.8l1.8,1.3
			L384.8,244.4z"/>
		<path class="st2" d="M253.7,258.1l84.6,16.9c3.8,0.8,7.8-0.2,10.5-2.4l40.7-34.5l22.7,13.9l-51.2,49c-2.5,2.4-6.3,3.5-10.1,3
			l-94-13c0,0-23.1-4.2-20.8-18.5C238.6,258,253.7,258.1,253.7,258.1z"/>
		<g class="st5">
			<g>
				<path class="st4" d="M422,216.3c0.5,0.3,1.2,0.3,1.7,0c0.1-0.1,0.2-0.1,0.3-0.2l16-15.7l-1.7-1.8l-16.5,16.1
					C421.3,215.2,421.4,215.9,422,216.3z"/>
			</g>
			<g>
				<path class="st4" d="M429.2,220.8c0.5,0.3,1.2,0.3,1.7,0.1c0.1-0.1,0.2-0.1,0.3-0.2l14.3-14l-1.7-1.9L429,219.2
					C428.6,219.7,428.6,220.4,429.2,220.8z"/>
			</g>
			<g>
				<path class="st4" d="M436.5,225.3c0.5,0.3,1.2,0.3,1.7,0c0.1,0,0.2-0.1,0.3-0.2l12.6-12.4c-0.1-0.2-0.3-0.4-0.5-0.6l-1.1-1.3
					l-13.1,12.9C435.8,224.2,435.9,224.9,436.5,225.3z"/>
			</g>
		</g>
		<g>
			<path class="st4" d="M307.7,193.7c1.1,16.7-8.4,31.5-24.7,35.8c-7.8,2-15.9,1.4-23.5-1.4c-12.3-4.5-23.1-14.5-28.2-27.7
				c-0.2-0.4-0.3-0.7-0.4-1.1c-0.5-1.2-0.8-2.5-1.2-3.7l0,0c-2.8-10.7-1.2-21.1,3.8-29.2c4.2-6.9,11-12,19.5-14.3
				c11.9-3.1,24.7,0,35,7.5c1.1,0.8,2.2,1.6,3.2,2.5c5.8,5,10.6,11.5,13.5,19c0.2,0.6,0.4,1.2,0.6,1.8
				C306.7,186.6,307.4,190.2,307.7,193.7z"/>
			<path class="st13" d="M305.4,182.9c-8.7,7.2-20.2,12.3-32.5,14.2c-5.1,0.7-10.4,1-15.3-0.3c-4.8-1.3-9.2-4.4-10.3-8.3
				c-1.6-6.1,4.5-11.7,10.6-15.6c9-5.7,19.2-10.2,30.2-13.3c1.1,0.8,2.2,1.6,3.2,2.5c5.8,5,10.6,11.5,13.5,19
				C305,181.7,305.2,182.3,305.4,182.9z"/>
			<path class="st23" d="M256.3,228.4c0.8-0.4,1.5-0.8,2.1-1.2c6.5-4.7,2-13.6,2-13.6c-6.8-4.4-10.7-13.2-5.6-16
				c5.1-2.8,11.2,2.6,11.2,2.6c-0.6-1.6-1.3-3.2-1.4-4.8c9.4-2.5,18.4-4.8,25.8-10.3c7.3-5.4,12.1-13.1,11.7-20.9
				c-0.5-7.9-6.9-15.6-16.3-18.1c-4.4-1.2-9.2-1.2-13.9-0.9c-15.7,1.1-31.1,6.3-41.7,15.5c-10.6,9.2-15.7,22.5-11.7,34.5
				c3.1,9.4,10.9,15.9,18.2,23.3C240.1,221.9,248.8,231.9,256.3,228.4z"/>
		</g>
	</g>
	<rect x="779.1" y="355.8" class="st24" width="294.6" height="8.1"/>
	<rect x="779.1" y="375.5" class="st24" width="294.6" height="8.1"/>
	<rect x="779.1" y="395.1" class="st24" width="294.6" height="8.1"/>
	<rect x="779.1" y="414.7" class="st24" width="294.6" height="8.1"/>
	<rect x="779.1" y="454.6" class="st25" width="112.2" height="8.1"/>
	<rect x="779.1" y="473.8" class="st25" width="112.2" height="8.1"/>
	<rect x="779.1" y="493.1" class="st25" width="112.2" height="8.1"/>
	<rect x="779.1" y="512.3" class="st25" width="112.2" height="8.1"/>
	<rect x="779.1" y="531.5" class="st25" width="112.2" height="8.1"/>
</g>
</svg>
